<?xml version="1.0" standalone="no"?>
<!DOCTYPE svg PUBLIC "-//W3C//DTD SVG 20010904//EN"
 "http://www.w3.org/TR/2001/REC-SVG-20010904/DTD/svg10.dtd">
<svg version="1.0" xmlns="http://www.w3.org/2000/svg"
 width="1820.000000pt" height="1400.000000pt" viewBox="0 0 1820.000000 1400.000000"
 preserveAspectRatio="xMidYMid meet">

<g transform="translate(0.000000,1400.000000) scale(0.100000,-0.100000)"
fill="#000000" stroke="none">
<path d="M4404 5429 c-54 -16 -127 -72 -155 -119 -50 -87 -49 -178 5 -258 36
-55 71 -76 226 -138 63 -25 123 -54 134 -64 21 -20 24 -76 6 -110 -14 -27 -84
-59 -128 -60 -38 0 -96 22 -108 42 -34 54 -112 73 -156 38 -52 -40 -41 -113
24 -177 68 -66 126 -88 233 -87 106 0 175 26 248 93 115 106 122 293 16 400
-33 33 -101 69 -243 127 -69 27 -106 54 -106 74 0 6 11 22 25 35 18 19 35 25
65 25 47 0 71 -10 118 -51 45 -40 93 -39 134 1 27 27 30 36 25 73 -5 34 -15
51 -56 88 -28 26 -71 54 -97 63 -51 17 -159 20 -210 5z m202 -39 c23 -10 60
-35 83 -55 32 -29 41 -44 41 -70 0 -65 -65 -88 -111 -39 -91 99 -282 49 -243
-63 10 -32 54 -56 180 -103 106 -40 162 -78 199 -137 27 -43 30 -56 29 -123
-1 -125 -51 -198 -170 -252 -73 -33 -181 -32 -254 3 -106 50 -158 132 -113
181 26 29 59 22 104 -21 49 -48 96 -65 160 -58 95 11 154 67 154 144 0 69 -35
94 -234 168 -77 29 -142 78 -167 126 -15 29 -18 104 -8 157 8 41 66 108 116
133 78 40 155 43 234 9z"/>
<path d="M7796 5417 l-26 -26 0 -263 -1 -263 -37 41 c-20 22 -75 90 -123 150
-228 291 -279 352 -308 364 -37 15 -71 8 -108 -24 l-28 -24 3 -414 c2 -227 5
-420 8 -429 12 -43 118 -49 158 -9 20 20 21 31 21 275 0 167 4 255 10 255 9 0
109 -122 225 -275 109 -143 194 -247 210 -255 56 -30 145 6 155 62 3 18 5 209
3 425 -3 445 1 422 -87 431 -43 4 -53 1 -75 -21z m108 -23 c14 -13 16 -65 16
-418 0 -388 -1 -404 -20 -421 -31 -28 -69 -22 -104 16 -18 19 -83 99 -146 179
-63 80 -156 197 -207 261 -51 64 -93 121 -93 128 0 7 -6 11 -12 9 -10 -4 -14
-77 -18 -302 l-5 -297 -27 -17 c-23 -14 -30 -14 -52 -3 -14 8 -27 20 -30 28
-3 7 -6 190 -6 406 l-1 392 26 22 c14 13 33 23 41 23 25 0 80 -62 279 -315
104 -132 197 -249 207 -259 10 -11 18 -23 18 -28 0 -4 8 -8 18 -8 16 0 17 18
14 272 -2 149 -1 282 2 294 13 50 68 71 100 38z"/>
<path d="M9595 5411 c-108 -52 -155 -123 -155 -233 0 -51 6 -73 30 -115 34
-60 82 -90 235 -149 124 -47 160 -78 152 -132 -8 -50 -52 -89 -111 -97 -59 -9
-101 6 -156 56 -42 38 -48 41 -89 36 -55 -6 -81 -34 -81 -86 0 -48 29 -93 87
-135 101 -73 247 -86 358 -31 116 56 179 152 179 270 0 93 -16 137 -73 194
-39 39 -69 56 -178 100 -120 48 -173 79 -173 100 0 5 8 19 18 31 14 18 32 24
73 28 53 4 57 2 103 -37 38 -33 55 -41 87 -41 114 0 120 138 10 215 -58 40
-107 54 -186 55 -57 0 -81 -5 -130 -29z m247 -25 c94 -46 140 -124 99 -165
-28 -28 -63 -26 -92 5 -92 100 -295 45 -249 -67 13 -31 28 -39 181 -98 170
-66 229 -134 229 -262 0 -88 -32 -154 -99 -207 -65 -52 -108 -66 -201 -66 -62
-1 -85 4 -132 27 -61 30 -128 96 -128 126 0 28 39 71 64 71 12 0 35 -14 52
-31 73 -79 191 -90 274 -27 36 28 49 57 50 106 0 61 -33 89 -167 140 -138 54
-183 81 -219 133 -25 37 -29 51 -29 108 1 103 39 158 145 213 46 24 168 21
222 -6z"/>
<path d="M12017 5419 l-27 -24 -1 -262 c0 -145 -3 -263 -7 -263 -7 1 -17 12
-197 240 -64 80 -143 180 -176 222 -70 88 -101 106 -152 89 -75 -25 -72 -8
-75 -442 -3 -410 1 -459 40 -480 28 -15 104 -6 128 16 18 17 20 35 22 284 l3
266 22 -25 c26 -30 203 -253 293 -370 103 -134 131 -160 174 -160 50 0 94 25
103 58 5 15 8 208 8 429 0 456 5 432 -82 440 -42 4 -54 1 -76 -18z m121 -443
l-3 -409 -28 -21 c-27 -20 -29 -20 -60 -3 -17 10 -53 46 -79 80 -25 34 -115
148 -198 252 -83 105 -166 209 -183 233 -17 23 -34 42 -39 42 -4 0 -8 -134 -8
-299 l0 -299 -25 -16 c-31 -21 -48 -20 -74 2 -21 17 -21 22 -22 417 l0 400 26
23 c14 12 34 22 44 22 18 0 65 -46 123 -120 19 -25 106 -135 194 -244 87 -109
168 -212 180 -227 11 -16 24 -26 27 -22 4 3 7 134 7 290 0 182 4 291 11 304
16 31 50 39 82 21 l27 -16 -2 -410z"/>
<path d="M12735 5426 c-190 -59 -252 -270 -120 -408 32 -34 62 -50 199 -104
133 -53 146 -63 146 -121 0 -59 -37 -98 -103 -108 -64 -10 -87 -2 -149 51 -49
43 -56 45 -98 41 -53 -6 -80 -34 -80 -84 0 -47 22 -85 72 -126 86 -70 194 -92
305 -63 181 46 286 208 239 369 -32 111 -76 149 -257 222 -110 44 -159 73
-159 96 0 5 11 21 25 34 19 20 34 25 74 25 44 0 55 -5 97 -41 44 -38 51 -41
92 -36 55 6 73 24 79 76 8 69 -55 141 -154 177 -47 16 -155 17 -208 0z m208
-35 c97 -42 147 -115 113 -166 -23 -35 -65 -33 -105 5 -17 17 -43 35 -57 40
-45 17 -108 12 -145 -13 -28 -19 -35 -30 -37 -64 -4 -54 15 -69 170 -129 182
-71 238 -133 238 -268 0 -139 -89 -236 -247 -268 -98 -20 -214 20 -282 97 -37
42 -39 70 -9 102 29 31 59 29 94 -8 64 -68 150 -86 229 -50 61 28 87 62 93
120 4 47 2 53 -27 80 -17 16 -53 37 -79 47 -103 37 -206 85 -238 109 -123 94
-85 297 69 365 57 25 161 26 220 1z"/>
<path d="M5223 5416 c-52 -24 -55 -47 -51 -482 3 -365 4 -393 22 -412 38 -43
124 -39 154 6 13 20 18 56 22 152 l5 125 99 3 c125 3 162 13 227 62 68 51 103
103 119 179 23 109 -6 208 -85 286 -78 78 -113 89 -310 92 -132 3 -177 0 -202
-11z m404 -44 c158 -82 210 -264 117 -412 -57 -93 -127 -123 -291 -128 l-121
-4 -4 -139 c-3 -148 -4 -152 -56 -165 -15 -4 -30 0 -42 11 -19 17 -20 34 -20
418 l0 401 23 24 c22 24 23 24 187 20 145 -4 170 -7 207 -26z"/>
<path d="M5337 5263 c-4 -3 -7 -71 -7 -150 l0 -143 120 0 c65 0 130 5 143 11
13 6 36 29 50 52 33 50 35 102 6 158 -30 60 -78 79 -205 79 -55 0 -104 -3
-107 -7z m225 -33 c63 -18 89 -80 68 -158 -14 -56 -48 -72 -154 -77 -46 -1
-88 0 -94 4 -8 5 -17 172 -13 234 1 11 150 8 193 -3z"/>
<path d="M6243 5423 c-13 -2 -32 -16 -43 -30 -19 -25 -20 -40 -20 -430 l0
-404 25 -24 24 -25 260 0 c173 0 268 4 285 11 45 21 57 119 18 151 -11 9 -73
14 -216 18 l-201 5 -3 82 c-3 79 -2 83 21 88 13 4 27 5 33 4 5 -1 64 -1 132 0
116 1 124 2 147 26 19 18 25 35 25 65 0 30 -6 47 -25 65 -24 24 -28 25 -180
25 l-155 0 0 95 0 95 194 0 c190 0 196 1 222 23 36 32 39 106 5 140 -21 21
-28 22 -274 23 -138 1 -262 0 -274 -3z m501 -34 c16 -8 26 -23 31 -47 12 -63
2 -66 -233 -72 l-207 -5 -3 -117 -3 -118 151 0 c175 0 205 -9 212 -61 4 -26 0
-38 -20 -56 -24 -22 -32 -23 -183 -23 l-159 0 0 -109 0 -110 205 -3 c224 -3
229 -5 241 -65 6 -28 3 -34 -27 -52 -32 -19 -50 -21 -257 -21 l-224 0 -29 30
-30 29 3 387 3 386 24 19 c21 17 42 19 252 19 147 0 237 -4 253 -11z"/>
<path d="M8362 5415 c-17 -8 -36 -25 -42 -39 -9 -25 -11 -149 -10 -594 l0
-223 25 -24 c23 -24 28 -25 172 -25 223 0 312 30 426 143 70 69 102 128 122
225 53 251 -124 500 -385 541 -95 16 -268 13 -308 -4z m318 -29 c156 -33 279
-145 330 -300 61 -184 -31 -400 -211 -496 -78 -42 -166 -60 -291 -60 -98 0
-109 2 -134 23 l-27 24 -3 359 c-2 368 2 429 32 451 24 18 220 17 304 -1z"/>
<path d="M8467 5256 c-3 -8 -5 -142 -4 -298 l2 -283 110 0 c99 1 116 3 167 28
61 30 105 74 140 140 33 61 32 184 0 247 -36 68 -80 109 -155 144 -59 28 -80
33 -161 35 -76 2 -94 -1 -99 -13z m244 -43 c63 -28 119 -80 142 -132 41 -92
12 -249 -55 -306 -64 -54 -178 -91 -258 -83 l-35 3 -3 274 -2 274 83 -5 c51
-4 101 -13 128 -25z"/>
<path d="M10452 5414 c-18 -9 -37 -25 -43 -35 -5 -11 -9 -179 -9 -421 l0 -403
25 -22 c26 -23 31 -23 286 -23 313 0 319 2 319 91 0 83 1 83 -237 89 l-208 5
3 79 c1 44 5 82 8 85 3 3 67 6 142 8 75 2 147 5 159 8 33 8 56 58 48 105 -10
61 -20 64 -199 70 l-161 5 2 90 1 90 200 5 c236 6 242 8 242 95 0 90 1 90
-294 93 -217 2 -255 0 -284 -14z m506 -25 c40 -14 55 -68 27 -99 -16 -18 -35
-20 -224 -22 l-206 -3 -3 -117 -3 -116 160 -4 c180 -3 201 -11 201 -74 0 -55
-31 -64 -210 -64 l-150 0 0 -109 0 -110 206 -3 c202 -3 206 -3 225 -27 25 -30
24 -63 -2 -87 -19 -17 -41 -19 -248 -22 -198 -3 -230 -1 -258 14 -23 12 -34
26 -38 48 -3 17 -5 197 -3 399 l3 369 24 19 c21 17 42 19 246 19 134 0 234 -4
253 -11z"/>
<path d="M13574 5420 c-12 -4 -31 -21 -43 -36 -22 -27 -22 -30 -19 -430 3
-371 4 -405 21 -421 16 -16 44 -18 280 -21 144 -2 272 0 285 3 48 12 65 123
24 157 -11 9 -73 14 -216 18 l-201 5 -3 79 c-2 53 1 82 9 87 7 4 37 7 68 7
227 2 229 2 250 20 32 26 39 100 13 132 -20 24 -25 25 -179 30 l-158 5 -3 93
-3 92 195 0 c192 0 195 0 223 24 24 20 28 32 27 71 -1 33 -7 52 -23 68 -21 21
-29 22 -274 24 -138 1 -262 -2 -273 -7z m506 -33 c19 -10 26 -22 28 -52 5 -63
-3 -65 -235 -65 l-203 0 0 -119 0 -120 154 -3 c148 -3 156 -4 180 -27 33 -31
33 -55 1 -86 -24 -24 -28 -25 -180 -25 l-155 0 0 -112 0 -113 191 2 c211 3
242 -3 252 -53 14 -75 -16 -84 -283 -84 -192 0 -226 2 -251 17 -16 10 -29 24
-30 33 -3 71 3 774 7 784 11 29 53 35 274 35 162 1 232 -3 250 -12z"/>
<path d="M4772 4038 c-6 -8 -9 -95 -8 -240 2 -126 0 -228 -3 -228 -3 1 -71 88
-151 196 -185 248 -210 277 -232 269 -25 -10 -32 -62 -24 -204 3 -69 6 -183 6
-253 l0 -128 25 0 25 0 2 244 3 245 175 -237 c147 -197 180 -237 200 -237 l25
0 3 293 c2 281 2 292 -17 292 -10 0 -23 -6 -29 -12z"/>
<path d="M8078 4044 c-8 -8 1 -38 67 -204 31 -80 70 -181 87 -225 46 -123 57
-145 74 -152 29 -11 30 -10 150 300 19 48 50 128 70 177 19 50 32 95 29 100
-3 6 -15 10 -26 10 -23 0 -23 -1 -121 -259 -78 -207 -87 -227 -98 -215 -4 5
-24 52 -43 104 -74 196 -125 328 -136 349 -11 20 -40 28 -53 15z"/>
<path d="M10543 4039 c-13 -13 3 -42 111 -208 l65 -101 3 -138 c3 -132 4 -137
25 -140 18 -3 22 3 28 37 3 21 5 86 4 143 l-3 103 93 143 c90 139 102 172 64
172 -18 0 -30 -16 -128 -167 -26 -40 -50 -75 -55 -78 -4 -3 -38 43 -76 103
-93 148 -104 158 -131 131z"/>
<path d="M14625 4038 c-3 -7 -6 -116 -7 -243 l-3 -230 -98 130 c-54 72 -135
178 -179 238 -126 169 -128 165 -128 -200 l0 -283 25 0 25 0 0 241 c0 140 4
239 9 237 5 -1 51 -59 102 -128 237 -321 253 -341 273 -338 32 5 37 50 34 325
l-3 258 -23 3 c-12 2 -24 -3 -27 -10z"/>
<path d="M2926 4030 c-72 -23 -119 -107 -96 -174 14 -43 54 -72 153 -111 87
-35 121 -73 114 -128 -6 -47 -25 -68 -77 -92 -34 -15 -46 -16 -80 -6 -21 6
-52 23 -69 36 -52 44 -84 7 -36 -41 56 -56 147 -69 222 -33 106 51 132 179 52
257 -16 16 -62 42 -102 57 -92 36 -116 52 -123 81 -9 34 12 79 42 93 48 21
117 9 137 -25 11 -19 46 -18 54 2 5 15 -27 58 -57 74 -25 14 -103 20 -134 10z"/>
<path d="M3583 4032 c-15 -10 -20 -549 -5 -564 4 -4 87 -7 183 -6 166 3 174 4
174 23 0 19 -8 20 -155 25 l-155 5 0 105 0 105 125 5 c117 5 125 6 125 25 0
19 -8 20 -125 25 l-125 5 -3 97 -3 97 152 3 c133 3 153 5 163 21 8 14 8 20 -4
27 -18 12 -330 13 -347 2z"/>
<path d="M5345 4025 c-22 -8 -41 -15 -42 -15 -1 0 -14 -17 -28 -37 -33 -50
-34 -111 -1 -149 13 -16 70 -51 127 -78 121 -59 139 -82 120 -148 -13 -42 -53
-74 -107 -84 -34 -6 -82 12 -127 48 -24 20 -29 20 -42 7 -14 -14 -13 -18 6
-43 68 -86 211 -85 294 3 24 26 30 41 33 95 4 59 2 65 -26 97 -28 33 -57 48
-174 98 -62 26 -85 60 -68 101 27 66 104 80 172 33 29 -19 42 -23 50 -15 9 9
9 18 0 36 -23 51 -118 77 -187 51z"/>
<path d="M6001 4026 c-11 -14 -15 -503 -4 -545 5 -21 10 -21 187 -19 173 3
181 4 181 23 0 19 -8 20 -155 25 l-155 5 -3 108 -3 107 125 0 c69 0 127 4 130
9 4 5 3 16 0 25 -5 13 -26 16 -130 16 l-124 0 0 100 0 100 149 0 c120 0 151 3
161 15 10 12 10 18 0 30 -17 21 -342 22 -359 1z"/>
<path d="M7301 4026 c-8 -9 -11 -94 -9 -287 l3 -274 180 0 c179 0 180 0 183
23 l3 22 -155 0 -156 0 0 110 0 110 125 0 125 0 0 25 0 25 -125 0 -125 0 0
100 0 100 139 0 c77 0 146 3 155 6 21 8 21 40 0 48 -9 3 -87 6 -174 6 -121 0
-160 -3 -169 -14z"/>
<path d="M8982 4032 c-9 -7 -12 -71 -10 -288 l3 -279 180 0 c173 0 180 1 180
20 0 19 -8 20 -155 25 l-155 5 -3 107 -3 107 128 3 c120 3 128 4 128 23 0 19
-8 20 -127 23 l-128 3 0 99 0 100 149 0 c120 0 151 3 161 15 10 12 10 18 0 30
-10 12 -42 15 -174 15 -88 0 -167 -4 -174 -8z"/>
<path d="M9767 4028 c-16 -12 -17 -39 -15 -293 l3 -280 28 -3 27 -3 0 125 0
126 73 0 73 0 60 -117 c37 -74 66 -119 77 -121 35 -7 29 30 -24 140 -43 89
-51 112 -39 116 29 10 76 67 89 109 12 35 12 51 2 85 -16 53 -66 103 -116 117
-55 15 -217 14 -238 -1z m269 -84 c41 -42 45 -90 13 -135 -33 -47 -69 -60
-157 -57 l-77 3 -3 113 -3 112 97 0 97 0 33 -36z"/>
<path d="M11995 4028 c-60 -21 -105 -81 -105 -139 0 -55 39 -92 137 -133 111
-47 143 -76 143 -129 0 -32 -6 -46 -34 -72 -56 -53 -120 -54 -190 -4 -21 15
-45 25 -53 22 -25 -10 -9 -46 34 -77 112 -78 273 -18 299 111 14 69 -46 151
-133 182 -127 46 -164 79 -143 132 26 61 108 77 172 33 35 -25 68 -27 68 -5 0
22 -54 71 -88 81 -45 12 -68 12 -107 -2z"/>
<path d="M12652 4028 c-9 -9 -12 -87 -12 -288 0 -289 3 -310 42 -289 16 8 18
23 18 118 l0 108 95 5 c81 4 101 9 135 32 22 14 46 39 55 56 22 42 29 112 16
152 -14 42 -65 92 -110 107 -46 15 -223 15 -239 -1z m264 -82 c30 -30 34 -40
34 -86 0 -46 -4 -56 -34 -86 -34 -34 -35 -34 -125 -34 l-91 0 0 120 0 120 91
0 c90 0 91 0 125 -34z"/>
<path d="M13432 4028 c-9 -9 -12 -81 -12 -274 0 -144 3 -269 6 -278 5 -14 31
-16 185 -16 l179 0 0 25 0 25 -155 0 -155 0 0 110 0 110 124 0 c125 0 140 5
129 38 -3 9 -38 12 -129 12 l-124 0 0 100 0 99 153 3 152 3 0 25 0 25 -170 3
c-124 2 -174 -1 -183 -10z"/>
<path d="M15102 4032 c-9 -6 -12 -71 -10 -288 l3 -279 96 -3 c122 -3 185 17
251 84 47 46 88 141 88 201 0 61 -33 144 -76 192 -61 68 -124 93 -244 98 -52
2 -101 0 -108 -5z m233 -71 c78 -36 123 -99 132 -187 16 -157 -101 -272 -269
-262 l-53 3 -2 233 -3 232 78 0 c53 0 89 -6 117 -19z"/>
</g>
</svg>
